<svg width="1200" height="520" viewBox="0 0 1200 520" fill="none" xmlns="http://www.w3.org/2000/svg">
  <defs>
    <linearGradient id="bg" x1="0" y1="0" x2="1200" y2="520"><stop stop-color="#020617"/><stop offset="0.55" stop-color="#111827"/><stop offset="1" stop-color="#1E1B4B"/></linearGradient>
    <linearGradient id="rail" x1="112" y1="288" x2="1088" y2="288"><stop stop-color="#64748B"/><stop offset="0.22" stop-color="#38BDF8"/><stop offset="0.48" stop-color="#14B8A6"/><stop offset="0.72" stop-color="#A78BFA"/><stop offset="1" stop-color="#F97316"/></linearGradient>
    <filter id="glow"><feGaussianBlur stdDeviation="8" result="b"/><feBlend in="SourceGraphic" in2="b" mode="screen"/></filter>
    <style>.title{font:900 36px Inter,Segoe UI,Arial,sans-serif;fill:#F8FAFC}.sub{font:700 15px Inter,Segoe UI,Arial,sans-serif;fill:#94A3B8}.company{font:900 20px Inter,Segoe UI,Arial,sans-serif;fill:#F8FAFC}.role{font:750 13px Inter,Segoe UI,Arial,sans-serif;fill:#BAE6FD}.year{font:900 18px Inter,Segoe UI,Arial,sans-serif;fill:#020617}.tag{font:800 12px Inter,Segoe UI,Arial,sans-serif;fill:#E0F2FE}.small{font:800 12px Inter,Segoe UI,Arial,sans-serif;fill:#94A3B8;letter-spacing:1px}@keyframes draw{to{stroke-dashoffset:-240}}@keyframes rise{0%{transform:translateY(10px);opacity:.55}50%{transform:translateY(-6px);opacity:1}100%{transform:translateY(10px);opacity:.55}}.rail{stroke-dasharray:16 14;animation:draw 7s linear infinite}.card{animation:rise 5s ease-in-out infinite}</style>
  </defs>
  <rect width="1200" height="520" rx="34" fill="url(#bg)"/>
  <text class="title" x="62" y="72">Career trajectory</text><text class="sub" x="62" y="102">Enterprise platforms -> communication systems -> consumer-scale commerce -> cloud infrastructure</text>
  <rect x="58" y="132" width="1084" height="318" rx="28" fill="#020617" opacity="0.62" stroke="#1E293B"/>
  <path class="rail" d="M118 292C252 218 340 356 470 284C600 212 704 344 830 276C966 203 1034 264 1088 202" stroke="url(#rail)" stroke-width="8" stroke-linecap="round" filter="url(#glow)"/>
  <g class="card" transform="translate(76 260)">
    <rect width="190" height="142" rx="22" fill="#0F172A" stroke="#475569"/><circle cx="42" cy="42" r="28" fill="#94A3B8"/><text class="year" x="22" y="48">2015</text><text class="company" x="22" y="88">Manhattan</text><text class="company" x="22" y="112">Associates</text><text class="role" x="22" y="134">Associate SWE -> SWE</text>
  </g>
  <g class="card" style="animation-delay:.4s" transform="translate(292 184)">
    <rect width="190" height="154" rx="22" fill="#082F49" stroke="#38BDF8"/><circle cx="42" cy="42" r="28" fill="#38BDF8"/><text class="year" x="22" y="48">2019</text><text class="company" x="22" y="88">Motorola</text><text class="company" x="22" y="112">Solutions</text><text class="role" x="22" y="136">Software Engineer</text>
  </g>
  <g class="card" style="animation-delay:.8s" transform="translate(508 244)">
    <rect width="190" height="170" rx="22" fill="#052E2B" stroke="#14B8A6"/><circle cx="42" cy="42" r="28" fill="#14B8A6"/><text class="year" x="22" y="48">2020</text><text class="company" x="22" y="92">Jio Platforms</text><text class="role" x="22" y="120">Software Engineer III</text><rect x="22" y="136" width="116" height="24" rx="12" fill="#0F766E"/><text class="tag" x="40" y="153">promotion</text>
  </g>
  <g class="card" style="animation-delay:1.2s" transform="translate(724 170)">
    <rect width="190" height="154" rx="22" fill="#2E1065" stroke="#A78BFA"/><circle cx="42" cy="42" r="28" fill="#A78BFA"/><text class="year" x="22" y="48">2024</text><text class="company" x="22" y="94">Wayfair</text><text class="role" x="22" y="124">Software Engineer</text>
  </g>
  <g class="card" style="animation-delay:1.6s" transform="translate(940 118)">
    <rect width="190" height="188" rx="22" fill="#431407" stroke="#F97316"/><circle cx="42" cy="42" r="28" fill="#F97316"/><text class="year" x="22" y="48">2025</text><text class="company" x="22" y="92">Oracle Cloud</text><text class="company" x="22" y="116">Infrastructure</text><text class="role" x="22" y="146">Software Engineer III</text><rect x="22" y="158" width="112" height="24" rx="12" fill="#EA580C"/><text class="tag" x="40" y="175">current</text>
  </g>
  <text class="small" x="62" y="486">CAREER LAYER: PLATFORM DEPTH, PRODUCT SCALE, INFRASTRUCTURE OWNERSHIP</text>
</svg>
