<svg width="1280" height="620" viewBox="0 0 1280 620" fill="none" xmlns="http://www.w3.org/2000/svg">
  <defs>
    <linearGradient id="bg" x1="0" y1="0" x2="1280" y2="620">
      <stop stop-color="#F8FAFC"/><stop offset="0.36" stop-color="#E0F2FE"/><stop offset="0.72" stop-color="#EEF2FF"/><stop offset="1" stop-color="#ECFEFF"/>
    </linearGradient>
    <linearGradient id="shine" x1="0" y1="0" x2="1280" y2="620">
      <stop stop-color="#0EA5E9"/><stop offset="0.48" stop-color="#14B8A6"/><stop offset="1" stop-color="#A78BFA"/>
    </linearGradient>
    <filter id="shadow" x="-10%" y="-20%" width="120%" height="150%"><feDropShadow dx="0" dy="14" stdDeviation="18" flood-color="#0F172A" flood-opacity="0.16"/></filter>
    <filter id="glow"><feGaussianBlur stdDeviation="8" result="b"/><feBlend in="SourceGraphic" in2="b" mode="screen"/></filter>
    <style>
      .title{font:900 42px Inter,Segoe UI,Arial,sans-serif;fill:#0F172A}.sub{font:750 16px Inter,Segoe UI,Arial,sans-serif;fill:#475569}.logo{font:950 24px Inter,Segoe UI,Arial,sans-serif;fill:#FFFFFF;letter-spacing:.5px}.company{font:900 22px Inter,Segoe UI,Arial,sans-serif;fill:#0F172A}.role{font:800 13px Inter,Segoe UI,Arial,sans-serif;fill:#334155}.year{font:900 13px Inter,Segoe UI,Arial,sans-serif;fill:#64748B;letter-spacing:1.3px}.badge{font:900 12px Inter,Segoe UI,Arial,sans-serif;fill:#FFFFFF}.micro{font:850 11px Inter,Segoe UI,Arial,sans-serif;fill:#64748B;letter-spacing:1.4px}
      @keyframes scan{0%{x:-240;opacity:0}20%,65%{opacity:.32}100%{x:1320;opacity:0}}@keyframes glowPulse{0%,100%{opacity:.45}50%{opacity:1}}.scan{animation:scan 5.8s ease-in-out infinite}.pulse{animation:glowPulse 2.7s ease-in-out infinite}
    </style>
  </defs>
  <rect width="1280" height="620" rx="38" fill="url(#bg)"/>
  <path d="M0 458C168 392 278 446 420 380C584 304 720 294 866 356C1022 422 1136 362 1280 306V620H0V458Z" fill="url(#shine)" opacity="0.12"/>
  <rect class="scan" y="0" width="190" height="620" fill="#FFFFFF" opacity="0"/>
  <rect x="54" y="54" width="1172" height="512" rx="34" fill="#FFFFFF" opacity="0.78" stroke="#BAE6FD" stroke-width="2" filter="url(#shadow)"/>
  <text class="title" x="86" y="112">Career progression</text>
  <text class="sub" x="86" y="142">Five engineering chapters across platforms, commerce scale, communication systems, and cloud infrastructure</text>

  <g filter="url(#shadow)">
    <rect x="86" y="198" width="206" height="268" rx="28" fill="#FFFFFF" stroke="#CBD5E1"/>
    <rect x="112" y="224" width="154" height="78" rx="22" fill="#475569"/>
    <text class="logo" x="147" y="273">MA</text>
    <text class="year" x="112" y="334">2015 - 2019</text>
    <text class="company" x="112" y="370">Manhattan</text><text class="company" x="112" y="398">Associates</text>
    <text class="role" x="112" y="430">Associate SWE -> SWE</text>
  </g>

  <g filter="url(#shadow)">
    <rect x="316" y="198" width="206" height="268" rx="28" fill="#FFFFFF" stroke="#FCA5A5"/>
    <rect x="342" y="224" width="154" height="78" rx="22" fill="#E1140A"/>
    <circle cx="384" cy="263" r="22" fill="#FFFFFF" opacity="0.95"/>
    <text class="logo" x="374" y="272" fill="#E1140A">M</text>
    <text class="year" x="342" y="334">2019</text>
    <text class="company" x="342" y="370">Motorola</text><text class="company" x="342" y="398">Solutions</text>
    <text class="role" x="342" y="430">Software Engineer</text>
  </g>

  <g filter="url(#shadow)">
    <rect x="546" y="198" width="206" height="268" rx="28" fill="#FFFFFF" stroke="#93C5FD"/>
    <rect x="572" y="224" width="154" height="78" rx="22" fill="#0A2885"/>
    <circle cx="622" cy="263" r="24" fill="#FFFFFF" opacity="0.95"/>
    <text class="logo" x="606" y="272" fill="#0A2885">Jio</text>
    <text class="year" x="572" y="334">2020 - 2022</text>
    <text class="company" x="572" y="374">Jio Platforms</text>
    <text class="role" x="572" y="406">Software Engineer III</text>
    <rect x="572" y="424" width="112" height="24" rx="12" fill="#0F766E"/><text class="badge" x="592" y="441">scale systems</text>
  </g>

  <g filter="url(#shadow)">
    <rect x="776" y="198" width="206" height="268" rx="28" fill="#FFFFFF" stroke="#C4B5FD"/>
    <rect x="802" y="224" width="154" height="78" rx="22" fill="#7B2CBF"/>
    <text class="logo" x="826" y="273">Wayfair</text>
    <text class="year" x="802" y="334">2024 - 2025</text>
    <text class="company" x="802" y="374">Wayfair</text>
    <text class="role" x="802" y="406">Software Engineer</text>
  </g>

  <g filter="url(#shadow)">
    <rect x="1006" y="178" width="220" height="308" rx="30" fill="#FFFFFF" stroke="#FDBA74"/>
    <rect x="1032" y="204" width="168" height="86" rx="24" fill="#F80000"/>
    <text class="logo" x="1060" y="257">ORACLE</text>
    <text class="year" x="1032" y="324">2025 - PRESENT</text>
    <text class="company" x="1032" y="362">Oracle Cloud</text><text class="company" x="1032" y="390">Infrastructure</text>
    <text class="role" x="1032" y="424">Software Engineer III</text>
    <rect x="1032" y="442" width="124" height="24" rx="12" fill="#F80000"/><text class="badge" x="1050" y="459">Oracle SQL</text>
  </g>

  <g opacity="0.65">
    <circle class="pulse" cx="302" cy="332" r="8" fill="#475569"/><path d="M310 332H316" stroke="#94A3B8" stroke-width="3"/>
    <circle class="pulse" cx="532" cy="332" r="8" fill="#E1140A"/><path d="M540 332H546" stroke="#94A3B8" stroke-width="3"/>
    <circle class="pulse" cx="762" cy="332" r="8" fill="#0A2885"/><path d="M770 332H776" stroke="#94A3B8" stroke-width="3"/>
    <circle class="pulse" cx="992" cy="332" r="8" fill="#7B2CBF"/><path d="M1000 332H1006" stroke="#94A3B8" stroke-width="3"/>
  </g>
  <text class="micro" x="86" y="536">CAREER CARDS / COMPANY MARKS / ROLE PROGRESSION / CURRENT CLOUD INFRASTRUCTURE CHAPTER</text>
</svg>
