<svg width="1280" height="640" viewBox="0 0 1280 640" fill="none" xmlns="http://www.w3.org/2000/svg" role="img" aria-labelledby="title desc"><title id="title">Animated Puneet Singhania hero</title><desc id="desc">A cinematic animated GitHub profile hero for Puneet Singhania.</desc><defs><linearGradient id="bg" x1="0" y1="0" x2="1280" y2="640"><stop stop-color="#020617"/><stop offset=".46" stop-color="#061527"/><stop offset="1" stop-color="#083344"/></linearGradient><linearGradient id="ocean" x1="0" y1="350" x2="1280" y2="610"><stop stop-color="#0EA5E9"/><stop offset=".48" stop-color="#14B8A6"/><stop offset="1" stop-color="#22C55E"/></linearGradient><linearGradient id="stroke" x1="80" y1="80" x2="1200" y2="560"><stop stop-color="#38BDF8"/><stop offset=".56" stop-color="#14B8A6"/><stop offset="1" stop-color="#A3E635"/></linearGradient><radialGradient id="pulseOrb" cx="50%" cy="50%" r="50%"><stop offset="0" stop-color="#38bdf8" stop-opacity=".44"/><stop offset="1" stop-color="#38bdf8" stop-opacity="0"/></radialGradient><filter id="glow"><feGaussianBlur stdDeviation="12" result="b"/><feBlend in="SourceGraphic" in2="b" mode="screen"/></filter><style>.name{font:900 88px Inter,Segoe UI,Arial,sans-serif;fill:#fff;letter-spacing:0}.role{font:850 28px Inter,Segoe UI,Arial,sans-serif;fill:#BAE6FD;letter-spacing:0}.micro{font:850 13px Inter,Segoe UI,Arial,sans-serif;fill:#93C5FD;letter-spacing:2px}.chip{font:900 15px Inter,Segoe UI,Arial,sans-serif;fill:#E0F2FE}.metric{font:900 21px Inter,Segoe UI,Arial,sans-serif;fill:#F8FAFC}.label{font:850 11px Inter,Segoe UI,Arial,sans-serif;fill:#94A3B8;letter-spacing:1.5px}@keyframes wave{to{stroke-dashoffset:-260}}@keyframes scan{0%{transform:translateX(-220px);opacity:0}22%,60%{opacity:.23}100%{transform:translateX(1320px);opacity:0}}@keyframes pulse{0%,100%{opacity:.25}50%{opacity:.9}}@keyframes float{0%,100%{transform:translateY(0)}50%{transform:translateY(-14px)}}.wave{stroke-dasharray:18 18;animation:wave 7s linear infinite}.pulse{animation:pulse 3s ease-in-out infinite}.scan{animation:scan 5.6s ease-in-out infinite}.float{animation:float 5.2s ease-in-out infinite}.float2{animation:float 6.1s ease-in-out .8s infinite}</style></defs><rect width="1280" height="640" rx="40" fill="url(#bg)"/><g opacity=".12"><path d="M80 120H1200M80 202H1200M80 284H1200M80 366H1200M80 448H1200M80 530H1200" stroke="#94A3B8"/><path d="M150 70V570M300 70V570M450 70V570M600 70V570M750 70V570M900 70V570M1050 70V570" stroke="#94A3B8"/></g><rect class="scan" y="0" width="180" height="640" fill="#38BDF8" opacity="0"/><circle class="float" cx="960" cy="218" r="118" fill="url(#pulseOrb)"><animate attributeName="r" values="96;124;96" dur="5s" repeatCount="indefinite"/></circle><circle class="float2" cx="620" cy="388" r="86" fill="url(#pulseOrb)"><animate attributeName="r" values="70;92;70" dur="6s" repeatCount="indefinite"/></circle><path d="M0 472C164 398 254 472 396 395C552 310 664 281 812 352C970 428 1088 363 1280 300V640H0V472Z" fill="url(#ocean)" opacity=".13"/><path class="wave" d="M40 470C188 402 284 462 424 394C568 324 688 312 828 370C980 432 1100 374 1240 312" stroke="url(#ocean)" stroke-width="5" stroke-linecap="round" filter="url(#glow)"/><path class="wave" d="M70 528C220 466 332 516 478 458C632 396 776 406 918 462C1052 516 1150 464 1238 428" stroke="#38BDF8" stroke-width="2.5" stroke-linecap="round" opacity=".62"/><rect x="58" y="58" width="1164" height="524" rx="34" fill="#020617" opacity=".66" stroke="url(#stroke)" stroke-width="2.5"><animate attributeName="stroke-opacity" values=".45;1;.45" dur="4s" repeatCount="indefinite"/></rect><rect x="84" y="84" width="1112" height="472" rx="26" fill="none" stroke="#1E293B"/><text class="micro" x="112" y="138">SOFTWARE ENGINEER III / ORACLE CLOUD INFRASTRUCTURE</text><text class="name" x="112" y="250">Puneet Singhania</text><rect x="112" y="282" width="690" height="4" rx="2" fill="url(#stroke)"><animate attributeName="width" values="520;690;520" dur="4.8s" repeatCount="indefinite"/></rect><text class="role" x="112" y="342">Backend Systems | Cloud Infrastructure | Distributed Workflows</text><g><rect x="112" y="386" width="176" height="48" rx="24" fill="#082F49" stroke="#38BDF8"/><text class="chip" x="146" y="416">Java / Spring</text><rect x="306" y="386" width="140" height="48" rx="24" fill="#052E2B" stroke="#14B8A6"/><text class="chip" x="350" y="416">Kafka</text><rect x="464" y="386" width="144" height="48" rx="24" fill="#14532D" stroke="#22C55E"/><text class="chip" x="505" y="416">Redis</text><rect x="626" y="386" width="180" height="48" rx="24" fill="#1E1B4B" stroke="#A78BFA"/><text class="chip" x="660" y="416">Kubernetes</text></g><g><rect x="112" y="482" width="198" height="74" rx="18" fill="#0F172A" stroke="#1E293B"/><text class="metric" x="138" y="514">Platform</text><text class="label" x="138" y="538">ENGINEERING</text><rect x="334" y="482" width="198" height="74" rx="18" fill="#0F172A" stroke="#1E293B"/><text class="metric" x="360" y="514">Reliability</text><text class="label" x="360" y="538">PRODUCTION-FIRST</text><rect x="556" y="482" width="198" height="74" rx="18" fill="#0F172A" stroke="#1E293B"/><text class="metric" x="582" y="514">Scale</text><text class="label" x="582" y="538">SYSTEM DESIGN</text></g><g opacity=".9"><path d="M928 170H1114M928 220H1162M928 270H1086M928 320H1140" stroke="url(#stroke)" stroke-width="3" stroke-linecap="round" stroke-dasharray="10 14"><animate attributeName="stroke-dashoffset" values="0;-120" dur="4s" repeatCount="indefinite"/></path><circle class="pulse" cx="924" cy="170" r="7" fill="#38BDF8"/><circle class="pulse" cx="924" cy="220" r="7" fill="#14B8A6"/><circle class="pulse" cx="924" cy="270" r="7" fill="#22C55E"/><circle class="pulse" cx="924" cy="320" r="7" fill="#A78BFA"/></g><g><circle cx="112" cy="604" r="7" fill="#22C55E"><animate attributeName="r" values="6;9;6" dur="2s" repeatCount="indefinite"/></circle><text class="micro" x="132" y="609">SYSTEM ONLINE</text></g></svg>