<svg width="1280" height="640" viewBox="0 0 1280 640" fill="none" xmlns="http://www.w3.org/2000/svg" role="img" aria-labelledby="title desc"><title id="title">Puneet Singhania tech console hero</title><desc id="desc">Animated tech console hero for Puneet Singhania with scanning grid, code streams, and holographic rings.</desc><defs><linearGradient id="bg" x1="0" y1="0" x2="1280" y2="640"><stop stop-color="#020617"/><stop offset=".52" stop-color="#071427"/><stop offset="1" stop-color="#08111f"/></linearGradient><linearGradient id="edge" x1="60" y1="60" x2="1220" y2="580"><stop stop-color="#38bdf8"/><stop offset=".45" stop-color="#14b8a6"/><stop offset=".78" stop-color="#8b5cf6"/><stop offset="1" stop-color="#fb7185"/></linearGradient><radialGradient id="halo" cx="50%" cy="50%" r="50%"><stop stop-color="#22d3ee" stop-opacity=".38"/><stop offset="1" stop-color="#22d3ee" stop-opacity="0"/></radialGradient><filter id="glow"><feGaussianBlur stdDeviation="8" result="b"/><feMerge><feMergeNode in="b"/><feMergeNode in="SourceGraphic"/></feMerge></filter><style>.name{font:900 86px Inter,Segoe UI,Arial,sans-serif;fill:#fff}.role{font:850 28px Inter,Segoe UI,Arial,sans-serif;fill:#BAE6FD}.micro{font:850 13px Inter,Segoe UI,Arial,sans-serif;fill:#93C5FD;letter-spacing:2px}.chip{font:900 15px Inter,Segoe UI,Arial,sans-serif;fill:#E0F2FE}.metric{font:900 21px Inter,Segoe UI,Arial,sans-serif;fill:#F8FAFC}.label{font:850 11px Inter,Segoe UI,Arial,sans-serif;fill:#94A3B8;letter-spacing:1.5px}@keyframes sweep{0%{transform:translateX(-240px);opacity:0}25%,70%{opacity:.22}100%{transform:translateX(1320px);opacity:0}}@keyframes blink{0%,100%{opacity:.2}50%{opacity:1}}@keyframes rise{0%{transform:translateY(120px);opacity:0}30%,75%{opacity:.65}100%{transform:translateY(-120px);opacity:0}}.sweep{animation:sweep 5.2s ease-in-out infinite}.blink{animation:blink 2.4s ease-in-out infinite}.rise{animation:rise 6s linear infinite}.rise2{animation:rise 7s linear .7s infinite}.rise3{animation:rise 5.5s linear 1.4s infinite}</style></defs><rect width="1280" height="640" rx="40" fill="url(#bg)"/><g opacity=".13"><path d="M90 128H1190M90 206H1190M90 284H1190M90 362H1190M90 440H1190M90 518H1190" stroke="#64748b"/><path d="M160 82V558M310 82V558M460 82V558M610 82V558M760 82V558M910 82V558M1060 82V558" stroke="#64748b"/></g><rect class="sweep" y="0" width="170" height="640" fill="#38BDF8" opacity="0"/><rect x="58" y="58" width="1164" height="524" rx="34" fill="#020617" opacity=".72" stroke="url(#edge)" stroke-width="2.5"><animate attributeName="stroke-opacity" values=".4;1;.4" dur="4s" repeatCount="indefinite"/></rect><rect x="84" y="84" width="1112" height="472" rx="26" fill="none" stroke="#1e293b"/><circle cx="980" cy="292" r="168" fill="url(#halo)"><animate attributeName="r" values="128;176;128" dur="5.5s" repeatCount="indefinite"/></circle><g transform="translate(980 292)" opacity=".9"><circle r="128" stroke="#38bdf8" stroke-width="2"/><circle r="94" stroke="#14b8a6" stroke-width="2"/><circle r="58" stroke="#8b5cf6" stroke-width="2"/><g><animateTransform attributeName="transform" type="rotate" from="0" to="360" dur="10s" repeatCount="indefinite"/><rect x="-5" y="-140" width="10" height="34" rx="5" fill="#38bdf8" filter="url(#glow)"/><rect x="-5" y="106" width="10" height="34" rx="5" fill="#14b8a6" filter="url(#glow)"/></g><g><animateTransform attributeName="transform" type="rotate" from="360" to="0" dur="14s" repeatCount="indefinite"/><rect x="-134" y="-5" width="34" height="10" rx="5" fill="#8b5cf6" filter="url(#glow)"/><rect x="100" y="-5" width="34" height="10" rx="5" fill="#fb7185" filter="url(#glow)"/></g><text x="-26" y="9" font-family="Arial" font-size="24" font-weight="900" fill="#e0f2fe">OCI</text></g><g opacity=".6"><rect class="rise" x="852" y="170" width="10" height="58" rx="5" fill="#38bdf8"/><rect class="rise2" x="882" y="210" width="10" height="92" rx="5" fill="#14b8a6"/><rect class="rise3" x="1134" y="150" width="10" height="76" rx="5" fill="#8b5cf6"/><rect class="rise2" x="1166" y="250" width="10" height="64" rx="5" fill="#fb7185"/></g><text class="micro" x="112" y="138">SOFTWARE ENGINEER III / ORACLE CLOUD INFRASTRUCTURE</text><text class="name" x="112" y="250">Puneet Singhania</text><rect x="112" y="282" width="690" height="4" rx="2" fill="url(#edge)"><animate attributeName="width" values="500;690;500" dur="4.6s" repeatCount="indefinite"/></rect><text class="role" x="112" y="342">Backend Systems | Cloud Infrastructure | Distributed Workflows</text><g><rect x="112" y="386" width="176" height="48" rx="24" fill="#082f49" stroke="#38bdf8"/><text class="chip" x="146" y="416">Java / Spring</text><rect x="306" y="386" width="140" height="48" rx="24" fill="#052e2b" stroke="#14b8a6"/><text class="chip" x="350" y="416">Kafka</text><rect x="464" y="386" width="144" height="48" rx="24" fill="#14532d" stroke="#22c55e"/><text class="chip" x="505" y="416">Redis</text><rect x="626" y="386" width="180" height="48" rx="24" fill="#1e1b4b" stroke="#a78bfa"/><text class="chip" x="660" y="416">Kubernetes</text></g><g><rect x="112" y="482" width="198" height="74" rx="18" fill="#0f172a" stroke="#1e293b"/><circle class="blink" cx="280" cy="510" r="7" fill="#38bdf8"/><text class="metric" x="138" y="514">Platform</text><text class="label" x="138" y="538">ENGINEERING</text><rect x="334" y="482" width="198" height="74" rx="18" fill="#0f172a" stroke="#1e293b"/><circle class="blink" cx="502" cy="510" r="7" fill="#14b8a6"/><text class="metric" x="360" y="514">Reliability</text><text class="label" x="360" y="538">PRODUCTION-FIRST</text><rect x="556" y="482" width="198" height="74" rx="18" fill="#0f172a" stroke="#1e293b"/><circle class="blink" cx="724" cy="510" r="7" fill="#a78bfa"/><text class="metric" x="582" y="514">Scale</text><text class="label" x="582" y="538">SYSTEM DESIGN</text></g><g><circle cx="112" cy="604" r="7" fill="#22c55e"><animate attributeName="r" values="6;9;6" dur="2s" repeatCount="indefinite"/></circle><text class="micro" x="132" y="609">SYSTEM ONLINE</text></g></svg>