<svg width="1280" height="460" viewBox="0 0 1280 460" fill="none" xmlns="http://www.w3.org/2000/svg">
  <defs>
    <linearGradient id="sea" x1="0" y1="0" x2="1280" y2="460"><stop stop-color="#F8FAFC"/><stop offset="0.48" stop-color="#E0F2FE"/><stop offset="1" stop-color="#CCFBF1"/></linearGradient>
    <linearGradient id="wave" x1="0" y1="300" x2="1280" y2="460"><stop stop-color="#2563EB"/><stop offset="0.5" stop-color="#14B8A6"/><stop offset="1" stop-color="#22C55E"/></linearGradient>
    <filter id="shadow"><feDropShadow dx="0" dy="14" stdDeviation="18" flood-color="#0F172A" flood-opacity="0.14"/></filter>
    <style>.title{font:900 40px Inter,Segoe UI,Arial,sans-serif;fill:#0F172A}.sub{font:750 16px Inter,Segoe UI,Arial,sans-serif;fill:#475569}.name{font:900 25px Inter,Segoe UI,Arial,sans-serif;fill:#0F172A}.label{font:850 11px Inter,Segoe UI,Arial,sans-serif;fill:#64748B;letter-spacing:1.3px}.value{font:850 15px Inter,Segoe UI,Arial,sans-serif;fill:#334155}.icon{font:900 16px Inter,Segoe UI,Arial,sans-serif;fill:#FFFFFF}.micro{font:850 11px Inter,Segoe UI,Arial,sans-serif;fill:#64748B;letter-spacing:1.4px}@keyframes pulse{0%,100%{opacity:.45}50%{opacity:1}}.pulse{animation:pulse 2.6s ease-in-out infinite}</style>
  </defs>
  <rect width="1280" height="460" rx="36" fill="url(#sea)"/>
  <path d="M0 338C178 282 282 340 436 286C602 228 728 242 884 298C1030 350 1146 310 1280 258V460H0V338Z" fill="url(#wave)" opacity="0.12"/>
  <rect x="54" y="54" width="1172" height="352" rx="36" fill="#FFFFFF" opacity="0.82" stroke="#BAE6FD" stroke-width="2" filter="url(#shadow)"/>
  <rect x="82" y="80" width="1116" height="38" rx="19" fill="#F8FAFC" stroke="#E2E8F0"/>
  <circle cx="112" cy="99" r="6" fill="#F87171"/><circle cx="134" cy="99" r="6" fill="#FBBF24"/><circle cx="156" cy="99" r="6" fill="#34D399"/>
  <text class="micro" x="188" y="103">phonebook.contacts</text>
  <text class="title" x="86" y="164">Phonebook</text><text class="sub" x="86" y="194">Quick ways to get in touch</text>
  <g filter="url(#shadow)">
    <rect x="86" y="232" width="350" height="126" rx="28" fill="#FFFFFF" stroke="#DBEAFE"/>
    <circle class="pulse" cx="136" cy="286" r="32" fill="#2563EB"/><text class="icon" x="126" y="292">PS</text>
    <text class="name" x="190" y="274">Puneet Singhania</text><text class="label" x="190" y="302">SAN FRANCISCO BAY AREA</text><text class="value" x="190" y="328">Software Engineer III</text>
  </g>
  <g filter="url(#shadow)"><rect x="470" y="214" width="332" height="66" rx="22" fill="#FFFFFF" stroke="#EA4335"/><circle cx="510" cy="247" r="17" fill="#EA4335"/><text class="icon" x="504" y="253">@</text><text class="label" x="548" y="238">EMAIL</text><text class="value" x="548" y="260">puneetsinghania2002@gmail.com</text></g>
  <g filter="url(#shadow)"><rect x="470" y="298" width="332" height="66" rx="22" fill="#FFFFFF" stroke="#22C55E"/><circle cx="510" cy="331" r="17" fill="#22C55E"/><text class="icon" x="504" y="337">#</text><text class="label" x="548" y="322">PHONE</text><text class="value" x="548" y="344">929-877-3879</text></g>
  <g filter="url(#shadow)"><rect x="836" y="214" width="358" height="66" rx="22" fill="#FFFFFF" stroke="#0A66C2"/><circle cx="876" cy="247" r="17" fill="#0A66C2"/><text class="icon" x="870" y="253">in</text><text class="label" x="914" y="238">LINKEDIN</text><text class="value" x="914" y="260">linkedin.com/in/puneet-singhania</text></g>
  <g filter="url(#shadow)"><rect x="836" y="298" width="358" height="66" rx="22" fill="#FFFFFF" stroke="#111827"/><circle cx="876" cy="331" r="17" fill="#111827"/><text class="icon" x="868" y="337">GH</text><text class="label" x="914" y="322">GITHUB</text><text class="value" x="914" y="344">github.com/puneetsinghania</text></g>
  <text class="micro" x="86" y="430">OPEN TO BACKEND, PLATFORM, INFRASTRUCTURE, AND SYSTEM DESIGN CONVERSATIONS</text>
</svg>
