<svg width="1280" height="500" viewBox="0 0 1280 500" fill="none" xmlns="http://www.w3.org/2000/svg">
  <defs>
    <linearGradient id="sea" x1="0" y1="0" x2="1280" y2="500"><stop stop-color="#F8FAFC"/><stop offset="0.44" stop-color="#E0F2FE"/><stop offset="1" stop-color="#CCFBF1"/></linearGradient>
    <linearGradient id="wave" x1="0" y1="330" x2="1280" y2="500"><stop stop-color="#2563EB"/><stop offset="0.5" stop-color="#14B8A6"/><stop offset="1" stop-color="#22C55E"/></linearGradient>
    <filter id="shadow"><feDropShadow dx="0" dy="14" stdDeviation="18" flood-color="#0F172A" flood-opacity="0.14"/></filter>
    <style>.title{font:900 40px Inter,Segoe UI,Arial,sans-serif;fill:#0F172A}.sub{font:750 16px Inter,Segoe UI,Arial,sans-serif;fill:#475569}.school{font:900 24px Inter,Segoe UI,Arial,sans-serif;fill:#0F172A}.degree{font:800 15px Inter,Segoe UI,Arial,sans-serif;fill:#334155}.place{font:850 11px Inter,Segoe UI,Arial,sans-serif;fill:#64748B;letter-spacing:1.3px}.course{font:850 12px Inter,Segoe UI,Arial,sans-serif;fill:#FFFFFF}.seal{font:900 28px Georgia,serif;fill:#FFFFFF}.micro{font:850 11px Inter,Segoe UI,Arial,sans-serif;fill:#64748B;letter-spacing:1.4px}@keyframes dash{to{stroke-dashoffset:-180}}@keyframes glow{0%,100%{opacity:.45}50%{opacity:1}}.dash{stroke-dasharray:12 14;animation:dash 5s linear infinite}.glow{animation:glow 2.8s ease-in-out infinite}</style>
  </defs>
  <rect width="1280" height="500" rx="36" fill="url(#sea)"/>
  <path d="M0 368C180 300 286 366 440 308C608 246 732 258 884 316C1032 374 1146 326 1280 270V500H0V368Z" fill="url(#wave)" opacity="0.12"/>
  <rect x="54" y="54" width="1172" height="392" rx="36" fill="#FFFFFF" opacity="0.82" stroke="#BAE6FD" stroke-width="2" filter="url(#shadow)"/>
  <rect x="82" y="80" width="1116" height="38" rx="19" fill="#F8FAFC" stroke="#E2E8F0"/>
  <circle cx="112" cy="99" r="6" fill="#F87171"/><circle cx="134" cy="99" r="6" fill="#FBBF24"/><circle cx="156" cy="99" r="6" fill="#34D399"/>
  <text class="micro" x="188" y="103">academic-foundation.app</text>
  <text class="title" x="86" y="164">Education</text><text class="sub" x="86" y="194">Computer science foundation in systems, algorithms, security, data, and distributed computing</text>
  <path class="dash" d="M304 304H976" stroke="url(#wave)" stroke-width="4" stroke-linecap="round"/>
  <g filter="url(#shadow)">
    <rect x="86" y="244" width="440" height="118" rx="26" fill="#FFFFFF" stroke="#2563EB"/>
    <circle class="glow" cx="136" cy="302" r="32" fill="#2563EB"/><text class="seal" x="118" y="311">U</text>
    <text class="school" x="190" y="292">UC Riverside</text><text class="degree" x="190" y="320">MS Computer Science</text><text class="place" x="190" y="342">RIVERSIDE, CALIFORNIA</text>
  </g>
  <g filter="url(#shadow)">
    <rect x="754" y="244" width="440" height="118" rx="26" fill="#FFFFFF" stroke="#14B8A6"/>
    <circle class="glow" cx="804" cy="302" r="32" fill="#14B8A6"/><text class="seal" x="785" y="311">N</text>
    <text class="school" x="858" y="292">National Institute of Engineering</text><text class="degree" x="858" y="320">BE Information Science</text><text class="place" x="858" y="342">MYSORE, INDIA</text>
  </g>
  <g>
    <rect x="142" y="392" width="132" height="28" rx="14" fill="#2563EB"/><text class="course" x="164" y="411">Distributed</text>
    <rect x="288" y="392" width="116" height="28" rx="14" fill="#0EA5E9"/><text class="course" x="314" y="411">Adv OS</text>
    <rect x="418" y="392" width="112" height="28" rx="14" fill="#14B8A6"/><text class="course" x="446" y="411">Big Data</text>
    <rect x="544" y="392" width="92" height="28" rx="14" fill="#7C3AED"/><text class="course" x="578" y="411">AI</text>
    <rect x="650" y="392" width="112" height="28" rx="14" fill="#F97316"/><text class="course" x="680" y="411">Security</text>
    <rect x="776" y="392" width="126" height="28" rx="14" fill="#0F766E"/><text class="course" x="812" y="411">Algorithms</text>
    <rect x="916" y="392" width="126" height="28" rx="14" fill="#1D4ED8"/><text class="course" x="944" y="411">Data Mining</text>
  </g>
</svg>
