<svg width="1280" height="500" viewBox="0 0 1280 500" fill="none" xmlns="http://www.w3.org/2000/svg">
  <defs>
    <linearGradient id="bg" x1="0" y1="0" x2="1280" y2="500"><stop stop-color="#F8FAFC"/><stop offset="0.48" stop-color="#EEF2FF"/><stop offset="1" stop-color="#E0F2FE"/></linearGradient>
    <linearGradient id="edge" x1="90" y1="70" x2="1190" y2="430"><stop stop-color="#2563EB"/><stop offset="0.50" stop-color="#7C3AED"/><stop offset="1" stop-color="#14B8A6"/></linearGradient>
    <filter id="shadow"><feDropShadow dx="0" dy="12" stdDeviation="16" flood-color="#0F172A" flood-opacity="0.14"/></filter>
    <style>.title{font:900 40px Inter,Segoe UI,Arial,sans-serif;fill:#0F172A}.sub{font:750 16px Inter,Segoe UI,Arial,sans-serif;fill:#475569}.school{font:900 25px Inter,Segoe UI,Arial,sans-serif;fill:#0F172A}.degree{font:800 16px Inter,Segoe UI,Arial,sans-serif;fill:#334155}.place{font:850 12px Inter,Segoe UI,Arial,sans-serif;fill:#64748B;letter-spacing:1.5px}.course{font:850 12px Inter,Segoe UI,Arial,sans-serif;fill:#FFFFFF}.seal{font:900 28px Georgia,serif;fill:#FFFFFF}@keyframes dash{to{stroke-dashoffset:-180}}@keyframes glow{0%,100%{opacity:.35}50%{opacity:1}}.dash{stroke-dasharray:12 14;animation:dash 5s linear infinite}.glow{animation:glow 2.8s ease-in-out infinite}</style>
  </defs>
  <rect width="1280" height="500" rx="34" fill="url(#bg)"/>
  <rect x="54" y="54" width="1172" height="392" rx="30" fill="#FFFFFF" opacity="0.78" stroke="#C7D2FE" stroke-width="2" filter="url(#shadow)"/>
  <text class="title" x="86" y="108">Education</text><text class="sub" x="86" y="138">Academic foundation in computer science, systems, algorithms, security, and distributed computing</text>
  <path class="dash" d="M306 256H974" stroke="url(#edge)" stroke-width="4" stroke-linecap="round"/>
  <g filter="url(#shadow)">
    <rect x="86" y="196" width="440" height="142" rx="26" fill="#FFFFFF" stroke="#2563EB"/>
    <circle class="glow" cx="136" cy="246" r="34" fill="#2563EB"/><text class="seal" x="118" y="255">U</text>
    <text class="school" x="190" y="238">UC Riverside</text><text class="degree" x="190" y="268">Master of Science in Computer Science</text><text class="place" x="190" y="294">RIVERSIDE, CALIFORNIA</text>
  </g>
  <g filter="url(#shadow)">
    <rect x="754" y="196" width="440" height="142" rx="26" fill="#FFFFFF" stroke="#14B8A6"/>
    <circle class="glow" cx="804" cy="246" r="34" fill="#14B8A6"/><text class="seal" x="785" y="255">N</text>
    <text class="school" x="858" y="238">National Institute of Engineering</text><text class="degree" x="858" y="268">Bachelor of Engineering in Information Science</text><text class="place" x="858" y="294">MYSORE, INDIA</text>
  </g>
  <g>
    <rect x="122" y="374" width="142" height="28" rx="14" fill="#2563EB"/><text class="course" x="146" y="393">Distributed Computing</text>
    <rect x="278" y="374" width="132" height="28" rx="14" fill="#0EA5E9"/><text class="course" x="304" y="393">Advanced OS</text>
    <rect x="424" y="374" width="116" height="28" rx="14" fill="#14B8A6"/><text class="course" x="452" y="393">Big Data</text>
    <rect x="554" y="374" width="124" height="28" rx="14" fill="#7C3AED"/><text class="course" x="584" y="393">AI</text>
    <rect x="692" y="374" width="142" height="28" rx="14" fill="#F97316"/><text class="course" x="724" y="393">Security</text>
    <rect x="848" y="374" width="164" height="28" rx="14" fill="#0F766E"/><text class="course" x="880" y="393">Algorithms</text>
    <rect x="1026" y="374" width="132" height="28" rx="14" fill="#1D4ED8"/><text class="course" x="1050" y="393">Data Mining</text>
  </g>
</svg>
