<svg width="1200" height="520" viewBox="0 0 1200 520" fill="none" xmlns="http://www.w3.org/2000/svg">
  <defs>
    <linearGradient id="bg" x1="0" y1="0" x2="1200" y2="520" gradientUnits="userSpaceOnUse">
      <stop stop-color="#020617"/>
      <stop offset="0.45" stop-color="#0F172A"/>
      <stop offset="1" stop-color="#042F2E"/>
    </linearGradient>
    <linearGradient id="accent" x1="120" y1="90" x2="1050" y2="440" gradientUnits="userSpaceOnUse">
      <stop stop-color="#38BDF8"/>
      <stop offset="0.55" stop-color="#14B8A6"/>
      <stop offset="1" stop-color="#22C55E"/>
    </linearGradient>
    <filter id="glow" x="-20%" y="-20%" width="140%" height="140%">
      <feGaussianBlur stdDeviation="18" result="blur"/>
      <feColorMatrix in="blur" type="matrix" values="0 0 0 0 0.1 0 0 0 0 0.8 0 0 0 0 1 0 0 0 0.45 0"/>
      <feBlend in="SourceGraphic" mode="screen"/>
    </filter>
    <style>
      .title { font: 800 56px Inter, Segoe UI, Arial, sans-serif; fill: #F8FAFC; letter-spacing: 0; }
      .subtitle { font: 600 24px Inter, Segoe UI, Arial, sans-serif; fill: #BAE6FD; letter-spacing: 0; }
      .body { font: 500 22px Inter, Segoe UI, Arial, sans-serif; fill: #CBD5E1; letter-spacing: 0; }
      .chip { font: 700 17px Inter, Segoe UI, Arial, sans-serif; fill: #E0F2FE; letter-spacing: 0; }
      .mini { font: 700 14px Inter, Segoe UI, Arial, sans-serif; fill: #94A3B8; letter-spacing: 0; }
      .metric { font: 900 30px Inter, Segoe UI, Arial, sans-serif; fill: #FFFFFF; letter-spacing: 0; }
      .label { font: 700 13px Inter, Segoe UI, Arial, sans-serif; fill: #A7F3D0; letter-spacing: 0; }
      @keyframes pulse { 0%,100% { opacity: .35; } 50% { opacity: .9; } }
      @keyframes slide { from { transform: translateX(-80px); opacity:.1; } to { transform: translateX(0); opacity:.8; } }
      .pulse { animation: pulse 3s ease-in-out infinite; }
      .slide { animation: slide 1.4s ease-out both; }
    </style>
  </defs>
  <rect width="1200" height="520" rx="34" fill="url(#bg)"/>
  <path d="M0 392C145 326 224 373 352 302C496 222 587 100 732 139C883 179 955 338 1200 232V520H0V392Z" fill="url(#accent)" opacity="0.12"/>
  <circle cx="1015" cy="98" r="140" fill="#0EA5E9" opacity="0.14" filter="url(#glow)"/>
  <circle cx="194" cy="410" r="120" fill="#22C55E" opacity="0.10" filter="url(#glow)"/>

  <g class="pulse" opacity="0.55">
    <path d="M760 106H1038" stroke="#38BDF8" stroke-width="2" stroke-dasharray="8 12"/>
    <path d="M818 176H1110" stroke="#14B8A6" stroke-width="2" stroke-dasharray="8 12"/>
    <path d="M716 246H1054" stroke="#22C55E" stroke-width="2" stroke-dasharray="8 12"/>
  </g>

  <g transform="translate(78 76)">
    <rect x="0" y="0" width="1044" height="368" rx="28" fill="#020617" opacity="0.72" stroke="url(#accent)" stroke-width="2"/>
    <text class="mini" x="44" y="54">CURRENT MODE</text>
    <text class="title" x="44" y="122">Backend + Platform Engineer</text>
    <text class="subtitle" x="48" y="168">Oracle Cloud Infrastructure | San Francisco Bay Area</text>
    <text class="body" x="48" y="226">Building reliable distributed systems, orchestration platforms,</text>
    <text class="body" x="48" y="260">cloud infrastructure workflows, and high-scale backend services.</text>

    <g class="slide" transform="translate(48 300)">
      <rect width="122" height="42" rx="21" fill="#082F49" stroke="#38BDF8"/>
      <text class="chip" x="28" y="27">Java</text>
      <rect x="138" width="168" height="42" rx="21" fill="#052E2B" stroke="#14B8A6"/>
      <text class="chip" x="166" y="27">Spring Boot</text>
      <rect x="322" width="120" height="42" rx="21" fill="#14532D" stroke="#22C55E"/>
      <text class="chip" x="354" y="27">Kafka</text>
      <rect x="458" width="190" height="42" rx="21" fill="#1E1B4B" stroke="#818CF8"/>
      <text class="chip" x="489" y="27">Distributed Systems</text>
    </g>

    <g transform="translate(748 68)">
      <rect width="238" height="238" rx="28" fill="#0F172A" stroke="#1E293B"/>
      <circle cx="119" cy="108" r="72" fill="#020617" stroke="url(#accent)" stroke-width="8"/>
      <path d="M119 42V174" stroke="#38BDF8" stroke-width="8" stroke-linecap="round"/>
      <path d="M53 108H185" stroke="#14B8A6" stroke-width="8" stroke-linecap="round"/>
      <circle cx="119" cy="108" r="22" fill="#22C55E"/>
      <text class="metric" x="66" y="214">SCALE</text>
      <text class="label" x="62" y="235">RELIABILITY FIRST</text>
    </g>
  </g>
</svg>
